<?xml version="1.0" standalone="no"?>
<!DOCTYPE svg PUBLIC "-//W3C//DTD SVG 20010904//EN"
 "http://www.w3.org/TR/2001/REC-SVG-20010904/DTD/svg10.dtd">
<svg version="1.0" xmlns="http://www.w3.org/2000/svg"
 width="5333.000000pt" height="2667.000000pt" viewBox="0 0 5333.000000 2667.000000"
 preserveAspectRatio="xMidYMid meet">
<metadata>
Created by potrace 1.16, written by Peter Selinger 2001-2019
</metadata>
<g transform="translate(0.000000,2667.000000) scale(0.100000,-0.100000)"
fill="#000000" stroke="none">
<path d="M0 13335 l0 -13335 26665 0 26665 0 0 13335 0 13335 -26665 0 -26665
0 0 -13335z m28190 2107 c535 -139 923 -569 1005 -1112 89 -586 -219 -1164
-759 -1421 -438 -208 -962 -161 -1359 122 -107 76 -264 237 -336 344 -98 147
-167 313 -207 496 -29 131 -27 400 4 538 124 554 546 959 1102 1057 50 9 136
12 255 10 162 -3 192 -7 295 -34z m-8449 -33 c50 -16 105 -61 132 -112 l22
-42 3 -1103 c1 -724 -1 -1117 -8 -1141 -23 -86 -107 -159 -194 -168 -87 -10
-188 44 -225 121 -21 42 -21 56 -21 859 0 449 -3 817 -7 817 -5 0 -404 -396
-888 -880 -922 -921 -920 -919 -1006 -920 -93 0 -193 67 -217 146 -18 60 -15
129 7 172 28 53 2206 2227 2251 2246 42 18 99 20 151 5z m3302 -22 c96 -57
134 -182 86 -287 -15 -33 -137 -162 -482 -507 l-461 -463 461 -463 c347 -347
467 -473 482 -507 25 -54 27 -133 6 -183 -50 -121 -205 -170 -319 -103 -23 14
-243 228 -491 475 -247 248 -454 451 -460 451 -5 0 -217 -206 -470 -459 -253
-252 -476 -467 -495 -477 -23 -12 -57 -18 -100 -19 -81 0 -140 30 -185 93
l-30 44 -3 1143 -2 1142 32 49 c23 33 50 57 87 76 l54 28 1121 -2 1121 -3 48
-28z m2997 23 c48 -13 106 -63 132 -113 28 -54 30 -147 4 -197 -10 -19 -228
-245 -484 -502 l-466 -468 471 -472 c516 -519 513 -515 499 -615 -8 -57 -46
-124 -90 -158 -49 -37 -130 -52 -192 -35 -46 12 -80 44 -527 489 l-477 475
-468 -466 c-488 -488 -511 -507 -593 -508 -86 0 -167 49 -204 125 l-25 51 2
1125 3 1126 30 48 c22 36 45 57 84 77 l53 28 1107 0 c687 0 1119 -4 1141 -10z
m3961 -18 c69 -36 106 -88 119 -167 6 -36 10 -376 10 -835 l0 -775 503 502
c276 275 518 509 537 519 48 25 153 25 200 0 19 -10 258 -240 530 -512 273
-272 499 -494 502 -494 4 0 9 363 10 808 3 753 4 810 21 847 25 56 61 90 120
115 101 44 213 10 274 -82 l28 -42 0 -1146 0 -1146 -27 -42 c-15 -22 -49 -54
-75 -69 -40 -23 -59 -28 -113 -28 -43 1 -77 7 -100 19 -19 10 -313 295 -652
634 l-618 617 -617 -617 c-340 -339 -634 -624 -653 -634 -23 -12 -57 -18 -100
-19 -115 0 -198 69 -220 184 -13 69 -13 2100 0 2191 6 43 18 77 37 104 38 53
119 96 183 96 33 0 64 -9 101 -28z m5753 17 c57 -16 129 -92 145 -154 29 -117
-32 -230 -146 -271 -31 -10 -195 -13 -835 -14 -438 0 -799 -4 -802 -8 -3 -5
389 -402 870 -883 519 -518 884 -890 897 -914 29 -55 29 -145 -1 -202 -28 -53
-83 -98 -138 -112 -59 -15 -2203 -15 -2257 0 -49 13 -115 73 -138 124 -46 100
-2 231 94 286 l42 24 825 5 825 5 -887 890 c-623 624 -892 901 -903 927 -46
113 17 256 130 296 43 15 2225 16 2279 1z m-17584 -3674 c74 -9 165 -54 219
-109 25 -25 43 -47 40 -50 -2 -2 -26 -15 -53 -28 l-49 -25 -43 43 c-56 56
-127 78 -233 72 -121 -7 -200 -50 -244 -133 -33 -61 -31 -184 3 -245 84 -150
373 -176 489 -44 l31 34 50 -25 c27 -14 50 -29 50 -34 0 -5 -25 -32 -55 -59
-75 -69 -143 -94 -269 -100 -207 -10 -347 59 -412 200 -24 53 -28 76 -29 148
0 57 6 102 18 137 31 89 119 170 220 202 42 14 161 29 192 25 11 -2 45 -6 75
-9z m6456 -11 c59 -16 152 -75 184 -117 12 -15 21 -30 19 -31 -2 -2 -26 -14
-52 -28 l-48 -24 -42 42 c-121 121 -403 89 -476 -54 -44 -86 -36 -205 19 -281
18 -24 50 -49 87 -67 52 -26 68 -29 158 -29 115 0 171 20 224 81 l31 34 50
-25 c27 -14 50 -29 50 -34 0 -5 -25 -32 -55 -59 -75 -69 -143 -94 -269 -100
-117 -5 -188 8 -269 51 -69 36 -111 81 -146 157 -35 76 -36 210 -3 284 58 129
161 198 318 214 85 9 153 5 220 -14z m918 -15 c44 -17 77 -38 117 -79 72 -71
94 -131 94 -250 -1 -175 -87 -282 -269 -335 -84 -24 -268 -17 -348 14 -72 28
-151 98 -185 165 -35 68 -44 200 -18 278 33 102 99 168 206 210 107 40 289 39
403 -3z m5268 4 c60 -23 129 -72 156 -110 l21 -29 -54 -27 -54 -26 -20 27
c-33 47 -115 85 -196 90 -205 13 -325 -80 -325 -252 0 -88 22 -139 79 -188
112 -96 339 -87 435 16 l31 34 53 -27 53 -27 -35 -40 c-41 -49 -130 -97 -208
-114 -81 -18 -238 -8 -310 19 -71 27 -151 98 -186 165 -25 46 -27 61 -27 161
0 97 3 115 24 155 47 89 100 137 189 171 106 39 276 41 374 2z m2730 -2 c89
-34 142 -82 189 -171 21 -40 24 -58 24 -155 0 -100 -2 -115 -27 -161 -35 -67
-115 -137 -186 -165 -72 -28 -247 -38 -331 -19 -150 33 -243 118 -277 253 -49
188 48 368 230 427 99 32 280 27 378 -9z m1833 5 c55 -17 155 -72 155 -84 0
-5 -16 -23 -35 -42 -33 -32 -37 -33 -58 -20 -88 56 -168 74 -296 68 -141 -7
-202 -44 -189 -115 6 -33 71 -53 236 -73 170 -20 227 -32 282 -60 50 -26 77
-59 88 -105 24 -111 -49 -203 -193 -240 -79 -20 -240 -20 -324 1 -92 23 -231
96 -231 121 0 5 15 24 34 42 l34 33 47 -32 c84 -58 145 -74 280 -74 149 -1
209 17 231 70 30 71 -17 105 -172 124 -281 35 -366 62 -411 129 -28 42 -30
103 -5 151 22 41 97 95 155 111 101 29 272 26 372 -5z m-16190 -23 c83 -44
115 -98 115 -192 0 -96 -48 -153 -167 -198 -25 -9 -27 -5 135 -192 l54 -61
-74 1 -73 0 -100 119 -100 119 -142 1 -143 0 0 -120 0 -120 -60 0 -60 0 0 336
0 335 288 -3 c272 -3 289 -4 327 -25z m945 -23 l0 -50 -275 0 -275 0 0 -90 0
-90 235 0 235 0 0 -50 0 -50 -235 0 -235 0 0 -95 0 -95 280 0 280 0 0 -50 0
-50 -335 0 -335 0 0 335 0 335 330 0 330 0 0 -50z m735 -262 c93 -172 175
-323 183 -335 l14 -23 -65 0 -66 0 -43 80 -43 80 -217 0 -218 0 -40 -80 -40
-80 -66 0 -66 0 19 33 c11 17 93 168 183 335 l163 302 67 0 67 0 168 -312z
m845 262 l0 -50 -155 0 -155 0 0 -285 0 -285 -60 0 -60 0 0 285 0 285 -150 0
-150 0 0 50 0 50 365 0 365 0 0 -50z m240 -285 l0 -335 -60 0 -60 0 0 335 0
335 60 0 60 0 0 -335z m375 68 c76 -148 140 -271 144 -275 3 -4 69 117 145
268 l139 274 64 0 64 0 -128 -247 c-70 -137 -148 -287 -173 -335 l-45 -88 -65
0 -65 0 -52 103 c-29 56 -107 207 -173 335 l-121 232 65 0 64 0 137 -267z
m1335 217 l0 -50 -275 0 -275 0 0 -90 0 -90 230 0 230 0 0 -50 0 -50 -230 0
-230 0 0 -95 0 -95 280 0 280 0 0 -50 0 -50 -340 0 -340 0 0 335 0 335 335 0
335 0 0 -50z m2540 -140 c84 -104 156 -188 159 -186 4 3 74 88 156 190 l150
186 68 0 67 0 0 -335 0 -335 -60 0 -60 0 -2 256 -3 255 -155 -190 c-85 -104
-159 -190 -165 -190 -5 -1 -80 84 -165 188 l-155 189 -3 -254 -2 -254 -55 0
-55 0 0 335 0 335 63 0 63 0 154 -190z m1081 3 c83 -104 154 -189 158 -190 3
-1 74 82 156 185 l150 187 68 3 67 3 0 -336 0 -335 -60 0 -60 0 0 256 0 256
-156 -188 c-86 -104 -161 -190 -167 -191 -7 -1 -82 84 -167 188 l-155 190 -3
-255 -2 -256 -55 0 -55 0 0 335 0 335 65 0 64 0 152 -187z m909 -20 c0 -199 1
-210 24 -260 41 -87 138 -132 257 -119 94 9 152 46 192 121 20 37 22 58 25
253 l3 212 61 0 60 0 -4 -217 c-4 -195 -7 -224 -26 -273 -27 -70 -90 -135
-162 -169 -50 -24 -66 -26 -180 -26 -114 0 -130 2 -180 26 -77 36 -124 80
-157 147 -28 57 -28 59 -31 285 l-3 227 60 0 61 0 0 -207z m1184 -43 c135
-137 248 -250 251 -250 3 0 5 113 5 250 l0 250 55 0 55 0 0 -335 0 -335 -52 0
-53 0 -262 262 -263 263 0 -263 0 -262 -55 0 -55 0 0 335 0 335 64 0 63 0 247
-250z m686 -85 l0 -335 -60 0 -60 0 0 335 0 335 60 0 60 0 0 -335z m1633 6
c97 -181 177 -332 177 -336 0 -3 -28 -5 -62 -3 l-63 3 -40 77 -40 78 -217 0
-217 0 -43 -80 -43 -80 -63 0 -63 0 17 33 c16 31 225 416 306 565 l39 72 67 0
67 0 178 -329z m837 279 l0 -50 -155 0 -155 0 0 -285 0 -285 -60 0 -60 0 0
285 0 285 -150 0 -150 0 0 50 0 50 365 0 365 0 0 -50z m240 -285 l0 -335 -60
0 -60 0 0 335 0 335 60 0 60 0 0 -335z m1527 83 l253 -253 0 253 0 252 55 0
55 0 0 -335 0 -335 -53 0 -53 0 -253 260 c-139 143 -257 260 -262 260 -5 0 -9
-110 -9 -260 l0 -260 -55 0 -55 0 0 335 0 335 62 0 63 0 252 -252z"/>
<path d="M27670 15010 c-214 -45 -413 -173 -536 -346 -58 -80 -119 -211 -145
-309 -29 -105 -32 -325 -6 -428 82 -328 327 -580 652 -669 115 -31 335 -31
450 0 312 85 546 315 642 629 23 78 26 105 27 238 1 126 -3 163 -22 235 -79
291 -295 525 -575 621 -154 53 -329 63 -487 29z"/>
<path d="M21032 14958 c-9 -9 -12 -173 -12 -675 0 -365 3 -663 8 -663 9 0
1342 1333 1342 1343 0 4 -298 7 -663 7 -502 0 -666 -3 -675 -12z"/>
<path d="M24083 14963 c-10 -4 -13 -148 -13 -676 l0 -672 670 670 c369 368
670 673 670 677 0 9 -1307 10 -1327 1z"/>
<path d="M25213 11624 c-29 -9 -71 -32 -94 -52 -57 -49 -79 -100 -79 -187 0
-80 21 -134 66 -177 94 -88 297 -103 422 -31 115 65 146 246 62 361 -45 63
-123 96 -234 99 -62 2 -108 -3 -143 -13z"/>
<path d="M33213 11621 c-68 -23 -118 -63 -145 -114 -18 -33 -23 -59 -23 -122
0 -70 4 -86 28 -128 53 -90 162 -135 303 -124 128 10 229 75 254 166 13 47 13
126 -1 176 -17 61 -90 127 -165 148 -78 22 -185 21 -251 -2z"/>
<path d="M18690 11504 l0 -116 203 4 c258 4 287 16 287 121 0 48 -22 77 -73
96 -17 7 -109 11 -223 11 l-194 0 0 -116z"/>
<path d="M20546 11466 c-42 -80 -76 -147 -76 -150 0 -3 72 -6 161 -6 88 0 159
3 157 8 -18 43 -154 292 -159 292 -3 0 -40 -65 -83 -144z"/>
<path d="M31367 11471 c-42 -82 -77 -151 -77 -155 0 -3 72 -6 160 -6 l161 0
-77 148 c-42 81 -80 150 -83 154 -3 4 -41 -60 -84 -141z"/>
</g>
</svg>
