<svg xmlns="http://www.w3.org/2000/svg" width="320" height="320" viewBox="0 0 320 320">
  <g id="Group_1" data-name="Group 1" transform="translate(-701.136 -479.136)">
    <circle id="Ellipse_1" data-name="Ellipse 1" cx="160" cy="160" r="160" transform="translate(701.136 479.136)" fill="#fff"/>
    <g id="user_admin" transform="translate(754.747 528.736)">
      <path id="Path_1" data-name="Path 1" d="M214.16,301.945H135.349A5.365,5.365,0,0,1,130,296.6V277.338a76.428,76.428,0,0,1,48.2-71.233,45.812,45.812,0,0,1-13.491-32.362c0-23.715,19.227-43.744,41.961-43.744s41.961,20.029,41.961,43.744a45.91,45.91,0,0,1-13.521,32.392,76.655,76.655,0,0,1,22.583,14,5.346,5.346,0,1,1-7.133,7.965,66.153,66.153,0,0,0-28.312-14.889,5.356,5.356,0,0,1-4.042-4.547,5.3,5.3,0,0,1,2.852-5.379c9.926-5.171,16.88-17.3,16.88-29.539,0-17.563-14.622-33.015-31.262-33.015s-31.262,15.452-31.262,33.045c0,12.214,6.924,24.362,16.88,29.539a5.338,5.338,0,0,1-1.188,9.926,65.764,65.764,0,0,0-50.4,64.129v13.907H214.16a5.338,5.338,0,1,1,0,10.669Z" transform="translate(-130 -129.999)" fill="#3dcd58"/>
      <path id="Path_2" data-name="Path 2" d="M525.2,463a5.645,5.645,0,0,1,4,1.661c1.418,1.424,3.507,2.815,13.864,7.218h.008a96.5,96.5,0,0,0,18.141,4.938,109.165,109.165,0,0,0,12.943,1.829,5.646,5.646,0,1,1,0,11.293,110.813,110.813,0,0,1-15.04-2.026,106.962,106.962,0,0,1-20.474-5.647,95.516,95.516,0,0,1-13.635-6.6c-1.191.673-2.428,1.28-3.6,1.837-1.336.632-2.809,1.295-4.333,1.98l-.475.214c-1.712.771-3.519,1.588-5.419,2.488h0a113.786,113.786,0,0,1-19.045,6.323c-3.969,1-7.962,1.868-11.173,2.406a114.365,114.365,0,0,0-.315,21.3c.9,11.287,2,24.5,10.213,37.89h0c3.559,5.811,10.3,10.751,17.811,14.888,3.669,2.023,7.346,3.763,10.654,5.272.8.365,1.6.725,2.379,1.079,1.281.578,2.513,1.133,3.626,1.653q1.423-.583,3-1.211c4.551-1.826,9.971-4,15.544-6.885,8.025-4.151,14.742-9.024,17.857-14.6h0c6.273-11.223,7.117-23.393,8.026-37.755a5.646,5.646,0,0,1,11.27.714q-.019.315-.04.631c-.87,13.758-1.792,28.311-9.4,41.918-4.826,8.639-14.143,14.782-22.526,19.119-6.077,3.148-12.514,5.731-17.191,7.61-1.779.716-3.305,1.329-4.459,1.83a5.644,5.644,0,0,1-4.852-.164c-1.291-.669-3.011-1.448-5.2-2.436q-1.256-.567-2.718-1.232c-3.394-1.549-7.374-3.422-11.418-5.655-7.919-4.366-16.835-10.472-21.985-18.874-9.69-15.8-10.928-31.374-11.823-42.63l-.022-.274a125.7,125.7,0,0,1,.939-28.07,5.646,5.646,0,0,1,5.412-4.826,91.2,91.2,0,0,0,13.629-2.644,103.5,103.5,0,0,0,16.972-5.577h0c2.011-.958,3.9-1.811,5.624-2.584l.46-.207c1.549-.7,2.919-1.313,4.15-1.9a20,20,0,0,0,4.63-2.64A5.646,5.646,0,0,1,525.2,463Z" transform="translate(-368.257 -364.041)" fill="#3dcd58" fill-rule="evenodd"/>
    </g>
  </g>
</svg>
